sfk_cyclingleg_x_-0.11_y_-0.05_states
version=1
nRows=8
nColumns=53
inDegrees=yes

# SIMM Motion File Header:
name sfk_cyclingleg_x_-0.11_y_-0.05_states
datacolumns 53
datarows 8
otherdata 1
range 0.41085530 0.41209427
endheader
time	/jointset/bb/crank_angle/value	/jointset/bb/crank_angle/speed	/jointset/spindle/pedal_angle_r/value	/jointset/spindle/pedal_angle_r/speed	/jointset/ground_pelvis/pelvis_tilt/value	/jointset/ground_pelvis/pelvis_tilt/speed	/jointset/ground_pelvis/pelvis_list/value	/jointset/ground_pelvis/pelvis_list/speed	/jointset/ground_pelvis/pelvis_rotation/value	/jointset/ground_pelvis/pelvis_rotation/speed	/jointset/ground_pelvis/pelvis_tx/value	/jointset/ground_pelvis/pelvis_tx/speed	/jointset/ground_pelvis/pelvis_ty/value	/jointset/ground_pelvis/pelvis_ty/speed	/jointset/ground_pelvis/pelvis_tz/value	/jointset/ground_pelvis/pelvis_tz/speed	/jointset/hip_r/hip_angle_r/value	/jointset/hip_r/hip_angle_r/speed	/jointset/hip_r/hip_adduction_r/value	/jointset/hip_r/hip_adduction_r/speed	/jointset/hip_r/hip_rotation_r/value	/jointset/hip_r/hip_rotation_r/speed	/jointset/knee_r/knee_angle_r/value	/jointset/knee_r/knee_angle_r/speed	/jointset/knee_r/tib_tx_r/value	/jointset/knee_r/tib_tx_r/speed	/jointset/knee_r/tib_ty_r/value	/jointset/knee_r/tib_ty_r/speed	/jointset/tib_pat_r/pat_angle_r/value	/jointset/tib_pat_r/pat_angle_r/speed	/jointset/tib_pat_r/pat_tx_r/value	/jointset/tib_pat_r/pat_tx_r/speed	/jointset/tib_pat_r/pat_ty_r/value	/jointset/tib_pat_r/pat_ty_r/speed	/jointset/ankle_r/ankle_angle_r/value	/jointset/ankle_r/ankle_angle_r/speed	/jointset/subtalar_r/subtalar_angle_r/value	/jointset/subtalar_r/subtalar_angle_r/speed	/jointset/mtp_r/mtp_angle_r/value	/jointset/mtp_r/mtp_angle_r/speed	/forceset/bifemlh_r/activation	/forceset/bifemlh_r/fiber_length	/forceset/bifemsh_r/activation	/forceset/bifemsh_r/fiber_length	/forceset/glut_max2_r/activation	/forceset/glut_max2_r/fiber_length	/forceset/vas_int_r/activation	/forceset/vas_int_r/fiber_length	/forceset/med_gas_r/activation	/forceset/med_gas_r/fiber_length	/forceset/tib_ant_r/activation	/forceset/tib_ant_r/fiber_length
      0.41085530	   -207.40238194	   -480.13863232	    205.81347039	    263.00895630	      0.00000000	      0.00000000	      0.00000000	      0.00000000	     -0.00000000	     -0.00000000	     -0.11000000	      0.00000000	     -0.05000000	     -0.00000000	     -0.00000000	     -0.00000000	     40.48490629	     84.76052344	      4.38427408	     -0.15690649	      0.47036649	    -22.86776671	    -63.46732559	   -288.29519119	      0.00500518	      0.01268940	     -0.47703823	     -0.09061073	     17.45682288	      4.11325865	      0.04177406	     -0.08753368	     -0.02279883	      0.01014184	     21.82037419	    -12.97092848	      0.00000000	      0.00000000	      0.00000000	      0.00000000	     -0.02745550	      0.11576097	     -0.02745550	      0.16445574	     -0.02745550	      0.13060336	     -0.02745550	      0.13162673	     -0.02745550	      0.14468703	     -0.02745550	      0.11670977
      0.41126162	   -207.59746962	   -480.13863232	    205.92038797	    263.27022473	      0.00000000	      0.00000000	      0.00000000	      0.00000000	     -0.00000000	     -0.00000000	     -0.11000000	      0.00000000	     -0.05000000	     -0.00000000	     -0.00000000	     -0.00000000	     40.51939065	     84.98124991	      4.38420883	     -0.16426448	      0.46107606	    -22.86234461	    -63.58449689	   -288.45496369	      0.00501029	      0.01247120	     -0.47707507	     -0.09073910	     17.45848356	      4.06110431	      0.04173847	     -0.08765655	     -0.02279471	      0.01012069	     21.81514536	    -12.76686359	      0.00000000	      0.00000000	      0.00000000	      0.00000000	     -0.02750781	      0.11573302	     -0.02750781	      0.16439143	     -0.02750781	      0.13062892	     -0.02750781	      0.13170935	     -0.02750781	      0.14457985	     -0.02750781	      0.11671472
      0.41130225	   -207.61697838	   -480.13863232	    205.93108557	    263.29644853	      0.00000000	      0.00000000	      0.00000000	      0.00000000	     -0.00000000	     -0.00000000	     -0.11000000	      0.00000000	     -0.05000000	     -0.00000000	     -0.00000000	     -0.00000000	     40.52284402	     85.00328415	      4.38420214	     -0.16500087	      0.46014714	    -22.86180032	    -63.59621758	   -288.47080223	      0.00501079	      0.01244935	     -0.47707876	     -0.09075188	     17.45864846	      4.05590336	      0.04173491	     -0.08766882	     -0.02279430	      0.01011852	     21.81462704	    -12.74646067	      0.00000000	      0.00000000	      0.00000000	      0.00000000	     -0.02751304	      0.11573023	     -0.02751304	      0.16438500	     -0.02751304	      0.13063148	     -0.02751304	      0.13171759	     -0.02751304	      0.14461497	     -0.02751304	      0.11671521
      0.41136736	   -207.64824020	   -480.13863232	    205.94823017	    263.33850752	      0.00000000	      0.00000000	      0.00000000	      0.00000000	     -0.00000000	     -0.00000000	     -0.11000000	      0.00000000	     -0.05000000	     -0.00000000	     -0.00000000	     -0.00000000	     40.52837973	     85.03857844	      4.38419136	     -0.16618114	      0.45865864	    -22.86092735	    -63.61500073	   -288.49613025	      0.00501160	      0.01241433	     -0.47708467	     -0.09077234	     17.45891227	      4.04757463	      0.04172920	     -0.08768846	     -0.02279364	      0.01011504	     21.81379818	    -12.71376740	      0.00000000	      0.00000000	      0.00000000	      0.00000000	     -0.02752143	      0.11572577	     -0.02752143	      0.16437470	     -0.02752143	      0.13063558	     -0.02752143	      0.13173081	     -0.02752143	      0.14461570	     -0.02752143	      0.11671599
      0.41169291	   -207.80454930	   -480.13863232	    206.03399431	    263.54947851	      0.00000000	      0.00000000	      0.00000000	      0.00000000	     -0.00000000	     -0.00000000	     -0.11000000	      0.00000000	     -0.05000000	     -0.00000000	     -0.00000000	     -0.00000000	     40.55609273	     85.21478391	      4.38413630	     -0.17208655	      0.45121698	    -22.85654842	    -63.70894112	   -288.62180399	      0.00501562	      0.01223907	     -0.47711424	     -0.09087427	     17.46022319	      4.00603344	      0.04170064	     -0.08778654	     -0.02279035	      0.01009723	     21.80968582	    -12.55032696	      0.00000000	      0.00000000	      0.00000000	      0.00000000	     -0.02756334	      0.11570350	     -0.02756334	      0.16432320	     -0.02756334	      0.13065611	     -0.02756334	      0.13179693	     -0.02756334	      0.14460195	     -0.02756334	      0.11671989
      0.41202738	   -207.96514160	   -480.13863232	    206.12218030	    263.76740006	      0.00000000	      0.00000000	      0.00000000	      0.00000000	     -0.00000000	     -0.00000000	     -0.11000000	      0.00000000	     -0.05000000	     -0.00000000	     -0.00000000	     -0.00000000	     40.58462479	     85.39536014	      4.38407773	     -0.17816081	      0.44357289	    -22.85202565	    -63.80549802	   -288.74925073	      0.00501968	      0.01205869	     -0.47714465	     -0.09097832	     17.46155598	      3.96353311	      0.04167126	     -0.08788704	     -0.02278698	      0.01007832	     21.80551618	    -12.38245416	      0.00000000	      0.00000000	      0.00000000	      0.00000000	     -0.02760641	      0.11568072	     -0.02760641	      0.16427029	     -0.02760641	      0.13067726	     -0.02760641	      0.13186486	     -0.02760641	      0.14449595	     -0.02760641	      0.11672385
      0.41206083	   -207.98120083	   -480.13863232	    206.13100291	    263.78925720	      0.00000000	      0.00000000	      0.00000000	      0.00000000	     -0.00000000	     -0.00000000	     -0.11000000	      0.00000000	     -0.05000000	     -0.00000000	     -0.00000000	     -0.00000000	     40.58748131	     85.41339246	      4.38407176	     -0.17876863	      0.44280856	    -22.85157208	    -63.81515605	   -288.76190263	      0.00502008	      0.01204064	     -0.47714769	     -0.09098869	     17.46168848	      3.95929314	      0.04166832	     -0.08789707	     -0.02278664	      0.01007640	     21.80510231	    -12.36566953	      0.00000000	      0.00000000	      0.00000000	      0.00000000	     -0.02761071	      0.11567845	     -0.02761071	      0.16426500	     -0.02761071	      0.13067937	     -0.02761071	      0.13187164	     -0.02761071	      0.14454587	     -0.02761071	      0.11672424
      0.41209427	   -207.99726006	   -480.13863232	    206.13982626	    263.81112613	      0.00000000	      0.00000000	      0.00000000	      0.00000000	     -0.00000000	     -0.00000000	     -0.11000000	      0.00000000	     -0.05000000	     -0.00000000	     -0.00000000	     -0.00000000	     40.59033844	     85.43142020	      4.38406577	     -0.17937651	      0.44204425	    -22.85111827	    -63.82481450	   -288.77453769	      0.00502048	      0.01202258	     -0.47715074	     -0.09099905	     17.46182083	      3.95505500	      0.04166538	     -0.08790711	     -0.02278631	      0.01007446	     21.80468899	    -12.34888538	      0.00000000	      0.00000000	      0.00000000	      0.00000000	     -0.02761502	      0.11567618	     -0.02761502	      0.16425971	     -0.02761502	      0.13068149	     -0.02761502	      0.13187843	     -0.02761502	      0.14454572	     -0.02761502	      0.11672464
